<svg width="2620" height="2221" viewBox="0 0 2620 2221" fill="none" xmlns="http://www.w3.org/2000/svg">
<g filter="url(#filter0_f_2775_47040)">
<path d="M847.732 817.685C1216.97 955.177 1633.09 633.966 1709.89 846.579C1786.7 1059.19 1168.5 853.666 587.201 1179.13C5.90048 1504.59 216.735 582.721 847.732 817.685Z" fill="url(#paint0_linear_2775_47040)" fill-opacity="0.7"/>
</g>
<g filter="url(#filter1_f_2775_47040)">
<path d="M1658.82 1875.03C2071.2 1721.5 1936.34 2006.52 2187.79 2033.91C2439.24 2061.3 2631.82 1765.45 2073.42 1542.04C1515.01 1318.63 954.085 2137.4 1658.82 1875.03Z" fill="url(#paint1_linear_2775_47040)" fill-opacity="0.4"/>
</g>
<path d="M1225 1191.91L1847 1083.69V1207.62L1225 1317.69L1225 1191.91Z" fill="url(#paint2_linear_2775_47040)"/>
<path d="M1847 1022.96L2147 970.698V1030.54L1847 1083.69L1847 1022.96Z" fill="url(#paint3_linear_2775_47040)"/>
<g filter="url(#filter2_f_2775_47040)">
<path d="M1825.28 220.463C1705.49 394.292 2042 463.463 1845.42 809.515C1648.83 1155.57 2260.97 1259.34 2304.33 720.995C2347.68 182.651 1967.69 13.8 1825.28 220.463Z" fill="url(#paint4_linear_2775_47040)" fill-opacity="0.6"/>
</g>
<path d="M719.245 1667.87L1020.93 1626.18L1018.78 1685.99L717.059 1728.57L719.245 1667.87Z" fill="url(#paint5_linear_2775_47040)"/>
<path d="M348 1180.18L648 1127.99V1187.75L348 1240.83L348 1180.18Z" fill="url(#paint6_linear_2775_47040)"/>
<path d="M108.5 1253.61L108.5 1129.72L725.5 1022.42V1144.48L108.5 1253.61Z" stroke="white" stroke-opacity="0.4"/>
<defs>
<filter id="filter0_f_2775_47040" x="0" y="525.543" width="1962.39" height="969.984" filterUnits="userSpaceOnUse" color-interpolation-filters="sRGB">
<feFlood flood-opacity="0" result="BackgroundImageFix"/>
<feBlend mode="normal" in="SourceGraphic" in2="BackgroundImageFix" result="shape"/>
<feGaussianBlur stdDeviation="123" result="effect1_foregroundBlur_2775_47040"/>
</filter>
<filter id="filter1_f_2775_47040" x="1144" y="1317.95" width="1476" height="902.73" filterUnits="userSpaceOnUse" color-interpolation-filters="sRGB">
<feFlood flood-opacity="0" result="BackgroundImageFix"/>
<feBlend mode="normal" in="SourceGraphic" in2="BackgroundImageFix" result="shape"/>
<feGaussianBlur stdDeviation="92.5" result="effect1_foregroundBlur_2775_47040"/>
</filter>
<filter id="filter2_f_2775_47040" x="1663.77" y="0.0349674" width="778.984" height="1231.89" filterUnits="userSpaceOnUse" color-interpolation-filters="sRGB">
<feFlood flood-opacity="0" result="BackgroundImageFix"/>
<feBlend mode="normal" in="SourceGraphic" in2="BackgroundImageFix" result="shape"/>
<feGaussianBlur stdDeviation="67.5" result="effect1_foregroundBlur_2775_47040"/>
</filter>
<linearGradient id="paint0_linear_2775_47040" x1="427.57" y1="690.118" x2="1272.23" y2="1198.03" gradientUnits="userSpaceOnUse">
<stop stop-color="#0589F0"/>
<stop offset="1" stop-color="#0589F0"/>
</linearGradient>
<linearGradient id="paint1_linear_2775_47040" x1="1181.26" y1="1960.47" x2="2124.53" y2="1393.15" gradientUnits="userSpaceOnUse">
<stop stop-color="#0589F0"/>
<stop offset="1" stop-color="#0589F0"/>
</linearGradient>
<linearGradient id="paint2_linear_2775_47040" x1="1847" y1="1141.58" x2="1327.71" y2="960.62" gradientUnits="userSpaceOnUse">
<stop stop-color="#0097FE" stop-opacity="0.1"/>
<stop offset="1" stop-color="#0097FE" stop-opacity="0.05"/>
</linearGradient>
<linearGradient id="paint3_linear_2775_47040" x1="2147" y1="998.653" x2="1896.47" y2="911.455" gradientUnits="userSpaceOnUse">
<stop stop-color="#0097FE" stop-opacity="0"/>
<stop offset="1" stop-color="#0097FE" stop-opacity="0.86"/>
</linearGradient>
<linearGradient id="paint4_linear_2775_47040" x1="1583.04" y1="3.5953" x2="2366.07" y2="798.901" gradientUnits="userSpaceOnUse">
<stop stop-color="#0589F0"/>
<stop offset="1" stop-color="#B14EDF"/>
</linearGradient>
<linearGradient id="paint5_linear_2775_47040" x1="1019.93" y1="1654.12" x2="772.756" y2="1558.02" gradientUnits="userSpaceOnUse">
<stop stop-color="#0097FE" stop-opacity="0"/>
<stop offset="1" stop-color="#0097FE" stop-opacity="0.86"/>
</linearGradient>
<linearGradient id="paint6_linear_2775_47040" x1="648" y1="1155.91" x2="397.541" y2="1068.62" gradientUnits="userSpaceOnUse">
<stop stop-color="#0097FE" stop-opacity="0.2"/>
<stop offset="1" stop-color="#0097FE" stop-opacity="0.2"/>
</linearGradient>
</defs>
</svg>
